<?xml version="1.0" encoding="utf-8"?>
<!-- Generator: Adobe Illustrator 16.0.0, SVG Export Plug-In . SVG Version: 6.00 Build 0)  -->
<!DOCTYPE svg PUBLIC "-//W3C//DTD SVG 1.1//EN" "http://www.w3.org/Graphics/SVG/1.1/DTD/svg11.dtd">
<svg version="1.1" id="Layer_1" xmlns="http://www.w3.org/2000/svg" xmlns:xlink="http://www.w3.org/1999/xlink" x="0px" y="0px"
	 width="640px" height="480px" viewBox="0 0 640 480" enable-background="new 0 0 640 480" xml:space="preserve">
<path fill="#1F1F1F" stroke="#D8D8D8" stroke-miterlimit="10" d="M356.169,185.185L469.5,200.5l-4.667,175
	c19.318-29.763,45.324-97.375,45.324-135.5c0-34.236-9.054-66.356-24.888-94.105c-12.992,18.913-33.757,31.161-57.159,31.161
	c-39.356,0-71.26-34.636-71.26-77.362c0-16.099,4.533-31.045,12.283-43.427c-15.675-4.181-32.142-6.422-49.134-6.422
	c-105.021,0-190.157,85.136-190.157,190.157S214.979,430.156,320,430.156c16.082,0,31.695-2.005,46.61-5.764l-5.758-131.908
	L356.169,185.185z"/>
</svg>
