<?xml version="1.0" encoding="utf-8"?>
<!-- Generator: Adobe Illustrator 16.0.0, SVG Export Plug-In . SVG Version: 6.00 Build 0)  -->
<!DOCTYPE svg PUBLIC "-//W3C//DTD SVG 1.1//EN" "http://www.w3.org/Graphics/SVG/1.1/DTD/svg11.dtd">
<svg version="1.1" id="Capa_1" xmlns="http://www.w3.org/2000/svg" xmlns:xlink="http://www.w3.org/1999/xlink" x="0px" y="0px"
	 width="500px" height="580px" viewBox="-201.938 -241.938 500 580" enable-background="new -201.938 -241.938 500 580"
	 xml:space="preserve">
<g>
	<path fill="#D3D3D3" d="M189.574-234.882L116.162-235c-82.48,0-135.782,54.686-135.782,139.325v64.236h-73.813
		c-6.378,0-11.543,5.17-11.543,11.549v93.074c0,6.378,5.171,11.543,11.543,11.543h73.813V319.58c0,6.378,5.165,11.543,11.543,11.543
		h96.31c6.373,0,11.537-5.171,11.537-11.543V84.728h86.308c6.385,0,11.55-5.165,11.55-11.543l0.034-93.074
		c0-3.063-1.22-5.996-3.382-8.162c-2.163-2.168-5.107-3.388-8.168-3.388H99.769v-54.456c0-26.172,6.24-39.458,40.336-39.458
		l49.457-0.018c6.373,0,11.538-5.173,11.538-11.546v-86.423C201.1-229.706,195.935-234.871,189.574-234.882z"/>
</g>
</svg>
